<svg width="237" height="50" viewBox="0 0 237 50" fill="none" xmlns="http://www.w3.org/2000/svg">
<g clip-path="url(#clip0_10880_78504)">
<path d="M65.1342 36.1557C64.9554 36.1493 64.7851 36.078 64.6547 35.9551C64.5379 35.8221 64.4739 35.6508 64.4748 35.4735V17.175C64.4708 16.9912 64.5349 16.8124 64.6547 16.6734C64.787 16.5561 64.9577 16.4919 65.1342 16.4928H77.2819C77.4649 16.4888 77.6429 16.5531 77.7814 16.6734C77.8479 16.7382 77.9001 16.8163 77.9345 16.9028C77.969 16.9892 77.9848 17.082 77.9811 17.175V19.1814C77.989 19.2749 77.9751 19.3689 77.9404 19.456C77.9057 19.5431 77.8513 19.6208 77.7814 19.683C77.6429 19.8032 77.4649 19.8676 77.2819 19.8636H68.291V25.1605H76.6425C76.7351 25.1568 76.8275 25.1728 76.9136 25.2074C76.9997 25.2419 77.0775 25.2943 77.142 25.3612C77.2096 25.4252 77.2625 25.5032 77.297 25.5898C77.3315 25.6765 77.3467 25.7696 77.3418 25.8628V27.8692C77.3427 27.9589 77.3255 28.0478 77.2912 28.1306C77.2568 28.2133 77.206 28.2882 77.142 28.3507C77.0065 28.4782 76.8282 28.5499 76.6425 28.5514H68.2111V35.5137C68.212 35.6909 68.148 35.8623 68.0312 35.9952C67.8896 36.1257 67.704 36.1974 67.5117 36.1958L65.1342 36.1557Z" fill="white"/>
<path d="M81.6369 36.1557C81.4582 36.1493 81.2878 36.078 81.1574 35.955C81.0407 35.8221 80.9766 35.6507 80.9775 35.4735V16.9342C80.9766 16.7569 81.0407 16.5856 81.1574 16.4526C81.2898 16.3354 81.4604 16.2711 81.6369 16.2721H83.9545C84.0425 16.2673 84.1306 16.281 84.2132 16.312C84.2957 16.3431 84.3709 16.391 84.4341 16.4526C84.4982 16.5151 84.5488 16.59 84.5832 16.6728C84.6175 16.7556 84.6348 16.8445 84.6339 16.9342V35.5337C84.6348 35.6234 84.6175 35.7123 84.5832 35.7951C84.5488 35.8778 84.4982 35.9527 84.4341 36.0152C84.3719 36.0795 84.2973 36.1305 84.2149 36.165C84.1324 36.1995 84.0438 36.2168 83.9545 36.2159L81.6369 36.1557Z" fill="white"/>
<path d="M94.6244 36.4366C93.7232 36.4842 92.8217 36.3488 91.9738 36.0385C91.1259 35.7282 90.349 35.2495 89.6895 34.6308C88.3963 33.2448 87.6812 31.4138 87.6915 29.5144C87.6915 29.3339 87.6915 29.0931 87.6915 28.7921C87.6915 28.4912 87.6915 28.2905 87.6915 28.1099C87.7171 26.8295 88.0385 25.5725 88.6305 24.4382C89.1706 23.4408 89.9903 22.6245 90.9881 22.0907C92.0834 21.514 93.3084 21.2307 94.5446 21.268C95.8704 21.2192 97.1839 21.5386 98.3406 22.191C99.3561 22.8164 100.163 23.7315 100.658 24.8194C101.216 26.0248 101.489 27.343 101.457 28.6717V29.2737C101.454 29.4479 101.382 29.6137 101.258 29.7351C101.193 29.802 101.115 29.8544 101.029 29.889C100.943 29.9235 100.851 29.9395 100.758 29.9358H91.4676V30.1565C91.4774 30.7838 91.6063 31.4035 91.8472 31.9823C92.0646 32.5119 92.4244 32.9704 92.8862 33.3066C93.3547 33.6507 93.9245 33.8273 94.5046 33.8082C94.9563 33.8249 95.4062 33.7427 95.8232 33.5674C96.1401 33.4292 96.4361 33.2468 96.7023 33.0257C96.8735 32.8761 97.0277 32.7079 97.1619 32.5241C97.2728 32.3627 97.4155 32.2261 97.5814 32.1228C97.7322 32.0846 97.8902 32.0846 98.041 32.1228H100.618C100.703 32.1184 100.788 32.1322 100.868 32.1634C100.947 32.1945 101.018 32.2422 101.078 32.3034C101.138 32.354 101.185 32.4193 101.212 32.4931C101.24 32.5669 101.249 32.6466 101.238 32.7247C101.173 33.1176 101.016 33.4892 100.778 33.8082C100.445 34.3015 100.025 34.7298 99.5395 35.0722C98.9377 35.5271 98.2616 35.8734 97.5415 36.0955C96.6444 36.3833 95.7058 36.519 94.7643 36.4968L94.6244 36.4366ZM91.5476 27.5883H97.7213C97.7441 26.9014 97.6216 26.2176 97.3617 25.5819C97.14 25.0599 96.7722 24.6137 96.3028 24.2977C95.7997 23.9839 95.2166 23.8236 94.6244 23.8363C94.032 23.8212 93.4482 23.9817 92.9461 24.2977C92.4767 24.6137 92.1089 25.0599 91.8872 25.5819C91.6444 26.2219 91.5291 26.9036 91.5476 27.5883V27.5883V27.5883Z" fill="white"/>
<path d="M103.875 36.1557C103.794 36.1573 103.714 36.1399 103.642 36.1051C103.569 36.0703 103.505 36.0189 103.455 35.955C103.392 35.9052 103.341 35.8412 103.306 35.7681C103.271 35.6949 103.254 35.6147 103.256 35.5337C103.248 35.467 103.248 35.3997 103.256 35.3331L103.416 35.0522L108.171 28.6517L103.755 22.6324C103.707 22.5565 103.667 22.4758 103.635 22.3916C103.616 22.3126 103.616 22.2299 103.635 22.1509C103.635 22.0721 103.651 21.9941 103.682 21.9217C103.713 21.8492 103.758 21.7839 103.815 21.7295C103.869 21.6725 103.934 21.627 104.006 21.596C104.079 21.565 104.156 21.5489 104.235 21.5489H106.612C106.702 21.5387 106.793 21.5477 106.879 21.5754C106.965 21.6031 107.045 21.6488 107.112 21.7095L107.372 22.0104L110.608 26.2239L113.765 22.0104L114.045 21.7095C114.107 21.6481 114.183 21.6017 114.266 21.5739C114.349 21.5461 114.438 21.5376 114.524 21.5489H116.842C116.924 21.5462 117.005 21.5608 117.081 21.5919C117.157 21.6231 117.225 21.67 117.282 21.7295C117.338 21.7801 117.383 21.8419 117.414 21.911C117.445 21.9801 117.461 22.055 117.461 22.1308C117.482 22.2165 117.482 22.306 117.461 22.3916L117.341 22.6324L112.866 28.6517L117.581 34.992L117.741 35.2729C117.749 35.3395 117.749 35.4068 117.741 35.4735C117.741 35.5523 117.725 35.6303 117.694 35.7027C117.663 35.7751 117.618 35.8405 117.561 35.8949C117.508 35.9603 117.441 36.0125 117.365 36.0473C117.289 36.0821 117.205 36.0986 117.122 36.0955H114.604C114.43 36.102 114.26 36.045 114.125 35.935C114.021 35.8446 113.928 35.7437 113.845 35.634L110.608 31.24L107.192 35.6942C107.117 35.8042 107.03 35.9051 106.932 35.9952C106.863 36.0538 106.784 36.0982 106.698 36.1258C106.613 36.1533 106.522 36.1635 106.432 36.1557H103.875Z" fill="white"/>
<path d="M125.772 36.1557C125.686 36.1589 125.599 36.1426 125.52 36.1078C125.44 36.0731 125.37 36.0209 125.313 35.9551C125.252 35.8954 125.204 35.8233 125.173 35.7438C125.142 35.6642 125.129 35.5789 125.133 35.4936V18.9406H119.758C119.674 18.9426 119.59 18.9276 119.511 18.8966C119.432 18.8656 119.36 18.8192 119.299 18.76C119.24 18.6989 119.194 18.6266 119.163 18.5474C119.132 18.4682 119.117 18.3836 119.119 18.2986V17.1148C119.114 17.0264 119.128 16.938 119.159 16.8551C119.19 16.7723 119.237 16.6967 119.299 16.6332C119.36 16.5741 119.432 16.5276 119.511 16.4966C119.59 16.4656 119.674 16.4507 119.758 16.4526H133.245C133.336 16.4463 133.427 16.4591 133.513 16.4902C133.599 16.5213 133.678 16.57 133.744 16.6332C133.806 16.6967 133.853 16.7723 133.884 16.8551C133.915 16.938 133.929 17.0264 133.924 17.1148V18.2986C133.926 18.3836 133.911 18.4682 133.88 18.5474C133.849 18.6266 133.803 18.6989 133.744 18.76C133.678 18.8232 133.599 18.8719 133.513 18.903C133.427 18.9341 133.336 18.9469 133.245 18.9406H127.91V35.4534C127.914 35.5388 127.901 35.6241 127.87 35.7036C127.839 35.7832 127.791 35.8552 127.73 35.9149C127.668 35.9851 127.591 36.0398 127.504 36.0747C127.418 36.1095 127.324 36.1235 127.231 36.1156L125.772 36.1557Z" fill="white"/>
<path d="M142.575 36.4366C141.339 36.4786 140.113 36.195 139.019 35.614C138.085 35.0915 137.327 34.3024 136.841 33.3467C136.309 32.3308 136.022 31.2038 136.002 30.0562C136.002 29.7351 136.002 29.3339 136.002 28.8322C136.002 28.3306 136.002 27.9294 136.002 27.6284C136.029 26.4753 136.316 25.3434 136.841 24.3178C137.353 23.3794 138.114 22.6017 139.039 22.0706C140.129 21.5008 141.347 21.2243 142.575 21.268C143.797 21.2241 145.009 21.5007 146.092 22.0706C147.021 22.5957 147.783 23.3749 148.289 24.3178C148.822 25.3417 149.116 26.4738 149.149 27.6284C149.149 27.9294 149.149 28.3306 149.149 28.8322C149.149 29.3339 149.149 29.7351 149.149 30.0562C149.11 31.2011 148.823 32.3239 148.309 33.3467C147.81 34.2996 147.047 35.0871 146.112 35.614C145.025 36.1951 143.806 36.4788 142.575 36.4366V36.4366ZM142.575 34.2696C143.088 34.2908 143.599 34.2014 144.075 34.0076C144.551 33.8138 144.979 33.5201 145.332 33.1461C146.133 32.2628 146.575 31.1102 146.571 29.9157C146.571 29.6348 146.571 29.2737 146.571 28.8523C146.571 28.431 146.571 28.0497 146.571 27.7688C146.604 26.5909 146.206 25.4415 145.452 24.5385C145.086 24.1485 144.638 23.8453 144.14 23.6509C143.642 23.4566 143.108 23.376 142.575 23.4149C142.056 23.3932 141.539 23.4821 141.057 23.6758C140.575 23.8694 140.139 24.1635 139.778 24.5385C139.023 25.4397 138.631 26.592 138.679 27.7688C138.679 28.0497 138.679 28.4109 138.679 28.8523C138.679 29.2937 138.679 29.6348 138.679 29.9157C138.627 31.0931 139.019 32.2469 139.778 33.1461C140.139 33.5211 140.575 33.8151 141.057 34.0088C141.539 34.2025 142.056 34.2914 142.575 34.2696V34.2696Z" fill="white"/>
<path d="M158.699 42.3355C157.637 42.3664 156.578 42.1892 155.583 41.8138C154.835 41.5582 154.153 41.1403 153.585 40.5899C153.169 40.1839 152.836 39.6999 152.606 39.1653C152.441 38.8029 152.333 38.4171 152.286 38.0217C152.274 37.9357 152.284 37.848 152.315 37.7671C152.347 37.6862 152.399 37.6149 152.466 37.5602C152.525 37.4974 152.596 37.4473 152.675 37.4128C152.754 37.3783 152.839 37.3602 152.925 37.3596H154.264C154.401 37.323 154.546 37.323 154.683 37.3596C154.832 37.4801 154.932 37.6515 154.963 37.8411C155.103 38.1691 155.27 38.4846 155.463 38.7841C155.738 39.1589 156.093 39.4674 156.502 39.687C157.128 39.9706 157.813 40.1013 158.5 40.0682C159.255 40.0893 160.007 39.9668 160.717 39.7071C161.3 39.4621 161.78 39.0227 162.076 38.4631C162.415 37.7077 162.572 36.883 162.536 36.0554V34.049C162.057 34.6491 161.458 35.1413 160.777 35.4936C159.921 35.9164 158.973 36.1165 158.02 36.0755C157.098 36.1042 156.182 35.9188 155.343 35.5337C154.624 35.1881 153.995 34.6799 153.505 34.049C153.094 33.4455 152.777 32.7824 152.566 32.0827C152.342 31.2569 152.208 30.4093 152.166 29.5546C152.166 29.0129 152.166 28.5112 152.166 28.0096C152.205 27.1546 152.339 26.3066 152.566 25.4816C152.788 24.7018 153.146 23.968 153.625 23.3146C154.108 22.6721 154.739 22.1559 155.463 21.8098C156.302 21.4247 157.218 21.2393 158.14 21.2681C159.108 21.2333 160.069 21.4401 160.937 21.87C161.633 22.2599 162.244 22.7851 162.735 23.4149V22.2111C162.734 22.0339 162.798 21.8625 162.915 21.7295C162.976 21.6704 163.048 21.6239 163.127 21.5929C163.206 21.5619 163.29 21.547 163.375 21.549H164.553C164.638 21.547 164.722 21.5619 164.801 21.5929C164.88 21.6239 164.952 21.6704 165.013 21.7295C165.077 21.792 165.128 21.8669 165.162 21.9497C165.196 22.0325 165.214 22.1214 165.213 22.2111V35.8347C165.237 36.9824 165.026 38.1228 164.593 39.1854C164.188 40.1475 163.488 40.9554 162.596 41.4928C161.399 42.1091 160.063 42.3996 158.719 42.3355H158.699ZM158.699 34.0088C159.501 34.0468 160.294 33.8214 160.957 33.3668C161.517 32.9512 161.953 32.389 162.216 31.7416C162.487 31.1066 162.636 30.4258 162.655 29.7352C162.655 29.4743 162.655 29.1533 162.655 28.7721C162.655 28.3909 162.655 28.0698 162.655 27.809C162.636 27.1183 162.487 26.4376 162.216 25.8026C161.953 25.1552 161.517 24.5929 160.957 24.1774C160.256 23.6923 159.409 23.4655 158.56 23.5353C157.766 23.493 156.981 23.7113 156.322 24.1573C155.765 24.5791 155.347 25.1593 155.123 25.8226C154.878 26.5342 154.737 27.2776 154.703 28.0297C154.703 28.5112 154.703 29.0129 154.703 29.5145C154.737 30.2666 154.878 31.0099 155.123 31.7215C155.347 32.3848 155.765 32.9651 156.322 33.3868C156.981 33.8328 157.766 34.0512 158.56 34.0088H158.699Z" fill="white"/>
<path d="M175.263 36.4366C174.412 36.477 173.563 36.339 172.768 36.0316C171.974 35.7242 171.251 35.2539 170.648 34.6509C169.455 33.3071 168.788 31.575 168.77 29.7753C168.77 29.5345 168.77 29.2135 168.77 28.8323C168.77 28.451 168.77 28.13 168.77 27.8892C168.817 26.6719 169.131 25.48 169.689 24.3981C170.209 23.4317 170.983 22.6268 171.926 22.0706C172.942 21.5128 174.086 21.2359 175.243 21.2681C176.488 21.2179 177.721 21.5241 178.799 22.1509C179.771 22.7673 180.536 23.6618 180.997 24.7191C181.525 25.94 181.784 27.2609 181.756 28.5915V29.073C181.761 29.1614 181.748 29.2498 181.717 29.3327C181.686 29.4155 181.638 29.4911 181.577 29.5546C181.447 29.6601 181.284 29.7168 181.117 29.7151H171.427V29.9759C171.467 30.7153 171.636 31.442 171.926 32.1228C172.211 32.7692 172.667 33.3245 173.245 33.7279C173.823 34.153 174.527 34.3719 175.243 34.3499C175.817 34.366 176.388 34.2636 176.921 34.049C177.312 33.867 177.675 33.6306 178 33.3467C178.22 33.1798 178.409 32.9762 178.56 32.7448C178.665 32.5858 178.801 32.4494 178.959 32.3435C179.104 32.3148 179.254 32.3148 179.399 32.3435H180.777C180.938 32.3447 181.093 32.4014 181.217 32.504C181.277 32.5587 181.321 32.6283 181.346 32.7058C181.371 32.7833 181.374 32.866 181.357 32.9454C181.302 33.3194 181.151 33.6724 180.917 33.9687C180.585 34.4263 180.18 34.8262 179.719 35.1525C179.116 35.5971 178.44 35.9301 177.721 36.1356C176.893 36.3946 176.03 36.5232 175.163 36.5169L175.263 36.4366ZM171.427 27.7689H179.099C179.109 26.9953 178.953 26.2286 178.64 25.5217C178.337 24.8918 177.875 24.3523 177.301 23.9567C176.703 23.5796 176.009 23.3845 175.303 23.3949C174.596 23.3809 173.902 23.5763 173.305 23.9567C172.734 24.3457 172.284 24.888 172.006 25.5217C171.693 26.2286 171.537 26.9953 171.547 27.7689V27.7689H171.427Z" fill="white"/>
<path d="M190.787 36.1557C189.9 36.1892 189.021 35.9738 188.249 35.5337C187.595 35.1412 187.089 34.5412 186.811 33.8282C186.497 32.9888 186.347 32.0963 186.371 31.1998V23.7961H184.193C184.104 23.7996 184.014 23.7834 183.932 23.7487C183.849 23.7141 183.775 23.6618 183.714 23.5955C183.653 23.5358 183.605 23.4638 183.574 23.3842C183.543 23.3046 183.53 23.2194 183.534 23.134V22.191C183.53 22.1057 183.543 22.0204 183.574 21.9408C183.605 21.8613 183.653 21.7892 183.714 21.7295C183.844 21.6088 184.016 21.544 184.193 21.549H186.371V16.9342C186.367 16.8489 186.381 16.7636 186.412 16.684C186.443 16.6044 186.49 16.5324 186.551 16.4727C186.612 16.4135 186.684 16.3671 186.763 16.3361C186.842 16.3051 186.926 16.2902 187.01 16.2921H188.329C188.414 16.2902 188.498 16.3051 188.577 16.3361C188.656 16.3671 188.728 16.4135 188.789 16.4727C188.85 16.5324 188.897 16.6044 188.928 16.684C188.959 16.7636 188.973 16.8489 188.968 16.9342V21.6292H192.525C192.61 21.6235 192.695 21.6367 192.775 21.6679C192.854 21.6991 192.926 21.7476 192.984 21.8098C193.045 21.8695 193.093 21.9415 193.124 22.0211C193.155 22.1007 193.169 22.1859 193.164 22.2713V23.2143C193.169 23.2996 193.155 23.3849 193.124 23.4645C193.093 23.544 193.045 23.6161 192.984 23.6758C192.931 23.7454 192.861 23.8003 192.78 23.8354C192.7 23.8705 192.612 23.8846 192.525 23.8764H189.048V30.9791C189.019 31.6749 189.171 32.3664 189.488 32.9856C189.66 33.2463 189.9 33.455 190.182 33.5893C190.463 33.7236 190.776 33.7785 191.086 33.748H192.805C192.889 33.746 192.974 33.761 193.052 33.792C193.131 33.823 193.203 33.8694 193.264 33.9286C193.323 33.9897 193.369 34.062 193.4 34.1412C193.431 34.2204 193.446 34.305 193.444 34.39V35.3933C193.448 35.4786 193.435 35.5639 193.404 35.6434C193.373 35.723 193.325 35.795 193.264 35.8547C193.207 35.9206 193.137 35.9728 193.057 36.0075C192.978 36.0422 192.891 36.0586 192.805 36.0554L190.787 36.1557Z" fill="white"/>
<path d="M196.721 36.1557C196.634 36.1589 196.548 36.1426 196.469 36.1078C196.389 36.0731 196.318 36.0209 196.262 35.9551C196.201 35.8954 196.153 35.8233 196.122 35.7438C196.091 35.6642 196.077 35.5789 196.082 35.4936V16.9342C196.077 16.8489 196.091 16.7636 196.122 16.684C196.153 16.6044 196.201 16.5324 196.262 16.4727C196.321 16.4116 196.393 16.3639 196.472 16.3327C196.551 16.3016 196.636 16.2878 196.721 16.2921H198.12C198.208 16.2874 198.296 16.301 198.378 16.3321C198.461 16.3632 198.536 16.4111 198.599 16.4727C198.707 16.6015 198.764 16.7658 198.759 16.9342V23.4751C199.262 22.8411 199.887 22.3156 200.597 21.9302C201.46 21.5073 202.415 21.3073 203.374 21.3483C204.459 21.3148 205.531 21.5858 206.471 22.1308C207.34 22.6609 208.035 23.4353 208.469 24.358C208.929 25.3994 209.154 26.5298 209.129 27.6685V35.5738C209.134 35.7422 209.077 35.9066 208.969 36.0353C208.909 36.1027 208.835 36.1558 208.752 36.1905C208.669 36.2252 208.579 36.2408 208.489 36.236H207.091C207.004 36.2392 206.918 36.2228 206.838 36.1881C206.759 36.1534 206.688 36.1012 206.631 36.0353C206.57 35.9756 206.523 35.9036 206.492 35.824C206.461 35.7445 206.447 35.6592 206.451 35.5738V27.7287C206.519 26.6156 206.178 25.5162 205.492 24.6389C205.14 24.2542 204.705 23.9549 204.22 23.7637C203.736 23.5726 203.214 23.4945 202.695 23.5353C202.178 23.5123 201.662 23.5986 201.18 23.7887C200.698 23.9788 200.261 24.2684 199.898 24.6389C199.155 25.4895 198.775 26.5992 198.839 27.7287V35.4936C198.844 35.662 198.787 35.8263 198.679 35.9551C198.619 36.0225 198.545 36.0755 198.462 36.1103C198.379 36.145 198.289 36.1605 198.2 36.1557H196.721Z" fill="white"/>
<path d="M218.899 36.4366C218.048 36.477 217.198 36.339 216.404 36.0316C215.609 35.7242 214.887 35.2539 214.283 34.6509C213.127 33.2927 212.496 31.5621 212.505 29.7753C212.505 29.5345 212.505 29.2135 212.505 28.8323C212.505 28.451 212.505 28.13 212.505 27.8892C212.553 26.6719 212.867 25.48 213.424 24.3981C213.937 23.4261 214.712 22.6193 215.662 22.0706C216.677 21.5128 217.822 21.2359 218.978 21.2681C220.223 21.2179 221.457 21.5241 222.535 22.1509C223.506 22.7673 224.272 23.6618 224.733 24.7191C225.26 25.94 225.519 27.2609 225.492 28.5915V29.073C225.497 29.1614 225.483 29.2498 225.452 29.3327C225.421 29.4155 225.373 29.4911 225.312 29.5546C225.182 29.6601 225.02 29.7168 224.852 29.7151H215.162V29.9759C215.193 30.7167 215.362 31.445 215.662 32.1228C215.948 32.7626 216.395 33.316 216.96 33.7279C217.542 34.1463 218.243 34.3644 218.958 34.3499C219.532 34.366 220.104 34.2636 220.637 34.049C221.028 33.867 221.391 33.6306 221.716 33.3467C221.935 33.1798 222.124 32.9762 222.275 32.7448C222.381 32.5858 222.516 32.4494 222.675 32.3435C222.82 32.3132 222.969 32.3132 223.114 32.3435H224.493C224.647 32.3443 224.797 32.4013 224.912 32.504C224.98 32.5533 225.031 32.6217 225.059 32.7003C225.088 32.7789 225.092 32.8642 225.072 32.9454C225.018 33.3194 224.866 33.6724 224.633 33.9687C224.3 34.4263 223.895 34.8262 223.434 35.1525C222.862 35.5867 222.22 35.9193 221.536 36.1356C220.708 36.3946 219.845 36.5232 218.978 36.5169L218.899 36.4366ZM215.062 27.7689H222.735C222.745 26.9953 222.588 26.2286 222.275 25.5217C221.972 24.8918 221.511 24.3523 220.936 23.9567C220.338 23.5796 219.644 23.3845 218.938 23.3949C218.232 23.3785 217.536 23.5741 216.94 23.9567C216.37 24.3457 215.92 24.888 215.642 25.5217C215.329 26.2286 215.172 26.9953 215.182 27.7689V27.7689H215.062Z" fill="white"/>
<path d="M229.388 36.1557C229.302 36.1589 229.215 36.1426 229.136 36.1079C229.056 36.0731 228.985 36.0209 228.929 35.9551C228.868 35.8954 228.82 35.8233 228.789 35.7438C228.758 35.6642 228.744 35.5789 228.749 35.4936V22.2111C228.748 22.0339 228.812 21.8625 228.929 21.7295C228.989 21.6704 229.062 21.6239 229.14 21.5929C229.219 21.5619 229.304 21.547 229.388 21.549H230.667C230.755 21.5443 230.843 21.5579 230.925 21.5889C231.008 21.62 231.083 21.6679 231.146 21.7295C231.21 21.792 231.261 21.8669 231.295 21.9497C231.33 22.0325 231.347 22.1214 231.346 22.2111V23.4551C231.702 22.8286 232.238 22.3249 232.885 22.0104C233.632 21.677 234.445 21.5192 235.262 21.549H236.361C236.446 21.547 236.53 21.5619 236.609 21.5929C236.688 21.6239 236.76 21.6704 236.821 21.7295C236.881 21.7892 236.929 21.8613 236.96 21.9408C236.991 22.0204 237.005 22.1057 237 22.191V23.3347C237.002 23.4197 236.988 23.5043 236.957 23.5835C236.926 23.6628 236.88 23.735 236.821 23.7962C236.691 23.9016 236.528 23.9584 236.361 23.9567H234.683C234.247 23.9333 233.812 23.9995 233.403 24.1513C232.994 24.3031 232.621 24.5373 232.305 24.8395C232.004 25.16 231.77 25.5387 231.619 25.9526C231.468 26.3665 231.402 26.807 231.426 27.2472V35.4936C231.431 35.5808 231.415 35.6679 231.381 35.748C231.346 35.8282 231.293 35.899 231.226 35.9551C231.17 36.0209 231.099 36.0731 231.019 36.1079C230.94 36.1426 230.853 36.1589 230.767 36.1557H229.388Z" fill="white"/>
<path d="M43.4961 22.7327C42.4061 22.7275 41.3623 22.2903 40.5915 21.5163C39.8208 20.7423 39.3855 19.6941 39.3802 18.5995C39.3802 18.0567 39.4868 17.5193 39.6937 17.0178C39.9005 16.5163 40.2036 16.0607 40.5858 15.6769C40.968 15.2931 41.4217 14.9886 41.921 14.7809C42.4204 14.5732 42.9556 14.4663 43.4961 14.4663C44.0366 14.4663 44.5718 14.5732 45.0711 14.7809C45.5705 14.9886 46.0243 15.2931 46.4065 15.6769C46.7886 16.0607 47.0918 16.5163 47.2986 17.0178C47.5055 17.5193 47.6119 18.0567 47.6119 18.5995C47.6119 19.6957 47.1783 20.747 46.4065 21.5222C45.6346 22.2973 44.5877 22.7327 43.4961 22.7327ZM56.8427 0L17.7422 19.6228L39.1006 30.3571V25.7825C39.0998 25.5236 39.1403 25.2662 39.2205 25.0201L32.3675 21.2279C32.1967 21.136 32.0461 21.0103 31.9249 20.8585C31.8037 20.7066 31.7144 20.5318 31.6621 20.3444C31.6099 20.157 31.5958 19.961 31.6209 19.768C31.646 19.575 31.7096 19.3892 31.808 19.2215C31.8996 19.05 32.0247 18.8989 32.1759 18.7772C32.3271 18.6555 32.5012 18.5657 32.6878 18.5132C32.8744 18.4608 33.0697 18.4467 33.2618 18.4719C33.454 18.497 33.639 18.5609 33.8059 18.6597L43.4762 24.0369H43.6359L53.3062 18.6597C53.4739 18.5637 53.6588 18.5021 53.8503 18.4783C54.0419 18.4546 54.2362 18.4693 54.422 18.5216C54.6079 18.5738 54.7816 18.6626 54.933 18.7828C55.0844 18.9029 55.2106 19.052 55.3042 19.2215C55.4026 19.3892 55.4662 19.575 55.4913 19.768C55.5163 19.961 55.5023 20.157 55.45 20.3444C55.3978 20.5318 55.3084 20.7066 55.1872 20.8585C55.066 21.0103 54.9155 21.136 54.7447 21.2279L47.7918 24.9599C47.872 25.206 47.9124 25.4634 47.9116 25.7223V34.4904C47.9116 34.4904 47.9116 34.6308 47.9116 34.7111L56.8625 39.2055V0H56.8427Z" fill="white"/>
<path d="M15.6042 23.6758C16.1437 23.6731 16.6785 23.7776 17.1777 23.9831C17.677 24.1886 18.1308 24.4912 18.5133 24.8734C18.8958 25.2556 19.1992 25.7099 19.4063 26.2102C19.6134 26.7106 19.72 27.2471 19.72 27.7889C19.72 28.8851 19.2864 29.9364 18.5145 30.7116C17.7426 31.4867 16.6958 31.9222 15.6042 31.9222C14.5126 31.9222 13.4657 31.4867 12.6938 30.7116C11.9219 29.9364 11.4884 28.8851 11.4884 27.7889C11.4884 27.2471 11.5949 26.7106 11.802 26.2102C12.0091 25.7099 12.3126 25.2556 12.695 24.8734C13.0775 24.4912 13.5314 24.1886 14.0306 23.9831C14.5298 23.7776 15.0646 23.6731 15.6042 23.6758M11.3285 34.2496L4.45545 30.4374C4.28669 30.3434 4.13821 30.2167 4.01857 30.0646C3.89894 29.9125 3.8105 29.7381 3.75846 29.5515C3.70643 29.3649 3.69181 29.1698 3.71542 28.9774C3.73902 28.7851 3.80041 28.5993 3.89602 28.431C3.98761 28.2595 4.11274 28.1084 4.26393 27.9867C4.41512 27.865 4.58927 27.7752 4.77586 27.7227C4.96246 27.6702 5.15766 27.6562 5.34981 27.6813C5.54195 27.7065 5.72705 27.7704 5.894 27.8692L15.5642 33.2464H15.7241L25.3943 27.8692C25.5612 27.7704 25.7463 27.7065 25.9385 27.6813C26.1306 27.6562 26.3258 27.6702 26.5124 27.7227C26.699 27.7752 26.8731 27.865 27.0243 27.9867C27.1755 28.1084 27.3006 28.2595 27.3922 28.431C27.4898 28.5999 27.5523 28.7868 27.576 28.9807C27.5996 29.1745 27.5839 29.3711 27.5297 29.5586C27.4756 29.7461 27.3842 29.9207 27.261 30.0717C27.1377 30.2228 26.9853 30.3472 26.8128 30.4374L19.9598 34.2496C20.0429 34.5295 20.0833 34.8203 20.0796 35.1124V39.9478L39.1803 30.3572L0 10.7143V49.9799L11.2086 44.362V35.1124C11.2049 34.8203 11.2453 34.5295 11.3285 34.2496" fill="white"/>
</g>
<defs>
<clipPath id="clip0_10880_78504">
<rect width="237" height="50" fill="white"/>
</clipPath>
</defs>
</svg>
