<svg width="24" height="24" viewBox="0 0 24 24" fill="none" xmlns="http://www.w3.org/2000/svg">
<mask id="mask0_10892_74748" style="mask-type:alpha" maskUnits="userSpaceOnUse" x="0" y="0" width="24" height="24">
<rect width="24" height="24" fill="#D9D9D9"/>
</mask>
<g mask="url(#mask0_10892_74748)">
<path d="M4 3L6 7H9L7 3H9L11 7H14L12 3H14L16 7H19L17 3H20C20.55 3 21.021 3.19567 21.413 3.587C21.8043 3.979 22 4.45 22 5V19C22 19.55 21.8043 20.021 21.413 20.413C21.021 20.8043 20.55 21 20 21H4C3.45 21 2.97933 20.8043 2.588 20.413C2.196 20.021 2 19.55 2 19V5C2 4.45 2.196 3.979 2.588 3.587C2.97933 3.19567 3.45 3 4 3ZM4 9V19H20V9H4ZM8 18H16V17.45C16 16.7167 15.6333 16.125 14.9 15.675C14.1667 15.225 13.2 15 12 15C10.8 15 9.83333 15.225 9.1 15.675C8.36667 16.125 8 16.7167 8 17.45V18ZM12 14C12.55 14 13.021 13.804 13.413 13.412C13.8043 13.0207 14 12.55 14 12C14 11.45 13.8043 10.979 13.413 10.587C13.021 10.1957 12.55 10 12 10C11.45 10 10.9793 10.1957 10.588 10.587C10.196 10.979 10 11.45 10 12C10 12.55 10.196 13.0207 10.588 13.412C10.9793 13.804 11.45 14 12 14Z" fill="#BBEDF6"/>
</g>
</svg>
