<svg width="24" height="24" viewBox="0 0 24 24" fill="none" xmlns="http://www.w3.org/2000/svg">
<mask id="mask0_10892_74754" style="mask-type:alpha" maskUnits="userSpaceOnUse" x="0" y="0" width="24" height="24">
<rect width="24" height="24" fill="#D9D9D9"/>
</mask>
<g mask="url(#mask0_10892_74754)">
<path d="M9 22V8.775C7.48333 8.375 6.271 7.53733 5.363 6.262C4.45433 4.98733 4 3.56667 4 2H6C6 3.38333 6.446 4.56233 7.338 5.537C8.22933 6.51233 9.36667 7 10.75 7H13.25C13.75 7 14.2167 7.09167 14.65 7.275C15.0833 7.45833 15.475 7.725 15.825 8.075L20.35 12.6L18.95 14L15 10.05V22H13V16H11V22H9ZM12 6C11.45 6 10.9793 5.804 10.588 5.412C10.196 5.02067 10 4.55 10 4C10 3.45 10.196 2.979 10.588 2.587C10.9793 2.19567 11.45 2 12 2C12.55 2 13.021 2.19567 13.413 2.587C13.8043 2.979 14 3.45 14 4C14 4.55 13.8043 5.02067 13.413 5.412C13.021 5.804 12.55 6 12 6Z" fill="#BBEDF6"/>
</g>
</svg>
