<svg width="24" height="24" viewBox="0 0 24 24" fill="none" xmlns="http://www.w3.org/2000/svg">
<path fill-rule="evenodd" clip-rule="evenodd" d="M12 3C16.967 3 21 7.02759 21 12C21 16.967 16.9724 21 12 21C7.03299 21 3 16.9724 3 12C3 7.03299 7.02759 3 12 3ZM10.8392 10.213H12.6857V11.1578H12.7127C12.9718 10.6935 13.5981 10.213 14.5375 10.213C16.4865 10.213 16.8482 11.4277 16.8482 13.0042V16.222H14.9208V13.3713C14.9208 12.6911 14.9046 11.8164 13.9166 11.8164C12.9124 11.8164 12.7612 12.5561 12.7612 13.3227V16.222H10.8338V10.213H10.8392ZM9.5057 8.54469C9.5057 9.09538 9.05759 9.54889 8.5015 9.54889C7.95081 9.54889 7.4973 9.10078 7.4973 8.54469C7.4973 7.994 7.94541 7.54049 8.5015 7.54049C9.05219 7.54049 9.5057 7.9886 9.5057 8.54469ZM7.5027 10.213H9.5057V16.222H7.5027V10.213Z" fill="white"/>
</svg>
